<svg width="24" height="24" viewBox="0 0 24 24" fill="none" xmlns="http://www.w3.org/2000/svg">
<path d="M23.936 7.38355C23.8031 6.90505 23.5106 6.53288 23.1119 6.26705L12.7975 0.259189C12.2393 -0.0863962 11.5215 -0.0863962 10.9632 0.259189L6.92256 2.67828V0.57819C6.92256 0.312356 6.70989 0.099688 6.44406 0.099688H3.51988C3.25404 0.099688 3.04138 0.312356 3.04138 0.57819V4.99104L0.888118 6.29363C0.462783 6.53288 0.170365 6.93163 0.0640307 7.41014C-0.0688865 7.88864 0.0108638 8.36714 0.250115 8.79248C0.489366 9.21781 0.888118 9.51023 1.36662 9.61656C1.52612 9.64315 1.65904 9.66973 1.81854 9.66973C2.13754 9.66973 2.45654 9.58998 2.74896 9.4039L3.04138 9.21781V20.1436C3.04138 20.4094 3.25404 20.6221 3.51988 20.6221H6.47064C6.73648 20.6221 6.94914 20.4094 6.94914 20.1436C6.94914 19.8778 6.73648 19.6651 6.47064 19.6651H3.99838V8.73931C3.99838 8.71273 3.99838 8.68614 3.9718 8.65956L11.8671 3.9277L19.7358 8.50006V19.6385H17.5294C17.2635 19.6385 17.0509 19.8512 17.0509 20.117C17.0509 20.3829 17.2635 20.5955 17.5294 20.5955H20.2409C20.5067 20.5955 20.7194 20.3829 20.7194 20.117V9.08489L21.251 9.37731C21.5169 9.53681 21.8359 9.61656 22.1815 9.61656C22.8195 9.61656 23.4309 9.27098 23.7499 8.71273C23.9891 8.34056 24.0689 7.83547 23.936 7.38355ZM3.99838 1.05669H5.93897V3.18337C5.93897 3.20995 5.93897 3.23654 5.96556 3.26312L4.02496 4.43279V1.05669H3.99838ZM22.8992 8.26081C22.66 8.65956 22.1549 8.79248 21.7561 8.55322L12.1329 2.94412C11.9734 2.86437 11.7873 2.86437 11.6278 2.94412L2.24387 8.55322C2.05779 8.65956 1.81854 8.68614 1.60587 8.63297C1.3932 8.57981 1.20712 8.44689 1.10079 8.23422C0.861534 7.83547 0.994451 7.33039 1.3932 7.09114L11.4683 1.10986C11.6012 1.03011 11.7342 0.976942 11.8937 0.976942C12.0532 0.976942 12.1861 1.00353 12.319 1.08328L22.6068 7.09114C22.7929 7.19747 22.9258 7.38355 22.979 7.59622C23.0587 7.83547 23.0321 8.04814 22.8992 8.26081Z" fill="#27263D" fill-opacity="1"/>
<path d="M16.4926 9.0317C16.4394 8.8722 16.3065 8.73928 16.147 8.68612C15.9875 8.63295 15.8014 8.68612 15.6685 8.81903C14.6849 9.80262 13.4886 10.0153 12.2126 10.228C10.6442 10.4938 9.04921 10.7862 8.01246 12.5407C6.15162 15.7041 7.72004 18.2296 8.19854 18.8676C7.56054 20.0107 7.08204 21.2601 6.92254 22.5893C6.89595 22.8551 7.08204 23.0943 7.34787 23.1475C7.37445 23.1475 7.40104 23.1475 7.40104 23.1475C7.64029 23.1475 7.85296 22.9614 7.87954 22.7222C8.46438 18.0169 13.6747 13.9496 13.7013 13.9231C13.914 13.7636 13.9406 13.4446 13.7811 13.2319C13.6216 13.0192 13.3026 12.9661 13.0899 13.1521C12.9304 13.2585 10.5113 15.1725 8.70363 17.9637C8.22513 17.1662 7.45421 15.332 8.80996 13.0724C9.63405 11.69 10.8835 11.4774 12.3456 11.2115C13.4355 11.0255 14.6317 10.8128 15.6951 10.0685C16.0407 11.6635 16.5989 15.4117 15.0039 17.5916C14.2064 18.6815 12.957 19.2397 11.3088 19.2929C11.043 19.2929 10.8303 19.5322 10.8303 19.798C10.8303 20.0638 11.043 20.2765 11.3088 20.2765C11.3088 20.2765 11.3088 20.2765 11.3354 20.2765C13.3291 20.2233 14.8178 19.5056 15.8014 18.1498C18.1673 14.9332 16.5457 9.27095 16.4926 9.0317Z" fill="#27263D" fill-opacity="1"/>
</svg>
