<svg width="24" height="24" viewBox="0 0 24 24" fill="none" xmlns="http://www.w3.org/2000/svg">
<path d="M23.8366 17.6322L19.371 6.06487C19.3172 5.93037 19.2365 5.84966 19.102 5.79586L14.6096 3.7783C14.233 2.00284 12.8072 0.092882 10.0095 0.442593C8.6376 0.603998 7.53466 1.35722 6.91594 2.54086C6.51243 2.62156 6.10892 2.72916 5.70541 2.91747C4.57557 3.42859 3.71474 4.37012 3.28433 5.52685C2.71941 7.0333 2.98842 8.70115 3.95685 9.96549L2.93462 12.7363C2.88082 12.8708 2.90772 13.0053 2.96152 13.1129C3.01532 13.2205 3.12292 13.3281 3.23053 13.3819L4.17206 13.7316L3.71474 14.9691L2.66561 14.5924C2.4235 14.5117 2.15449 14.6193 2.04689 14.8614L1.05156 17.2018C0.997757 17.3363 0.997757 17.4708 1.05156 17.5784C1.10536 17.7129 1.21296 17.7936 1.34747 17.8474L2.3697 18.2241L1.99309 19.1656L1.34747 18.9235C1.07846 18.8159 0.809451 18.9504 0.701848 19.2194L0.0293265 21.0486C-0.0244752 21.1831 0.00242565 21.3446 0.0562274 21.4522L1.23986 23.6311C1.32057 23.7925 1.50887 23.9001 1.67028 23.9001C1.72408 23.9001 1.80478 23.8732 1.85858 23.8463L4.11826 22.851C4.22586 22.7972 4.33346 22.6896 4.38726 22.582L8.5838 11.6871C9.12181 11.5795 9.60603 11.3643 10.0633 11.0953L14.6634 22.9586C14.7441 23.1469 14.9324 23.2814 15.1207 23.2814C15.1745 23.2814 15.2283 23.2814 15.2821 23.2545L22.357 20.8603C22.9757 20.6182 23.46 20.1609 23.7559 19.5691C24.0518 18.9504 24.0787 18.251 23.8366 17.6322ZM10.144 1.41102C11.8926 1.19582 12.9148 2.11045 13.4259 3.24028L12.9955 3.05198C12.7534 2.94437 12.4844 3.02507 12.3768 3.24028L11.5967 4.58532C11.0587 3.7783 10.2785 3.10578 9.31012 2.75607C8.93351 2.62156 8.5569 2.54086 8.15338 2.48706C8.50309 2.00284 9.14871 1.54553 10.144 1.41102ZM8.20718 10.7456C8.01888 10.7725 7.88437 10.8801 7.83057 11.0684L3.58024 22.0171L1.91239 22.7434L1.05156 21.1562L1.48197 20.0264L2.12759 20.2685C2.3697 20.3492 2.66561 20.2416 2.74631 19.9726L3.47263 18.1165C3.52644 17.9819 3.52644 17.8474 3.47263 17.7398C3.41883 17.6053 3.31123 17.5246 3.20363 17.4708L2.18139 17.0942L2.80011 15.6685L3.87615 16.072C4.11826 16.1796 4.41417 16.0451 4.52177 15.7761L5.32879 13.5971C5.3826 13.4626 5.35569 13.3281 5.30189 13.2205C5.24809 13.1129 5.14049 13.0053 5.03288 12.9515L4.09135 12.6018L5.03288 10.0193C5.08669 9.85789 5.05979 9.66958 4.95218 9.53508C4.06445 8.51285 3.79545 7.114 4.27966 5.84966C4.62937 4.93503 5.30189 4.20871 6.18962 3.7783C6.32413 3.7245 6.43173 3.67069 6.56623 3.61689C6.40483 4.37012 6.43173 5.15024 6.62003 5.84966C6.27032 6.14557 6.05512 6.57599 6.05512 7.0602C6.05512 7.94793 6.78144 8.67425 7.66917 8.67425C8.5569 8.67425 9.28322 7.94793 9.28322 7.0602C9.28322 6.17247 8.5569 5.44615 7.66917 5.44615C7.61537 5.44615 7.58847 5.44615 7.53466 5.47305C7.37326 4.82743 7.40016 4.10111 7.64227 3.45549C8.09958 3.45549 8.55689 3.50929 8.98731 3.67069C10.8704 4.37012 11.8657 6.46838 11.1663 8.37834C10.6283 9.64268 9.52533 10.5304 8.20718 10.7456ZM7.05045 6.8719C7.13115 6.9795 7.18495 7.0871 7.26566 7.16781C7.37326 7.27541 7.50776 7.35611 7.64227 7.35611C7.74987 7.35611 7.85747 7.32921 7.96508 7.24851C8.15338 7.0871 8.18028 6.845 8.07268 6.65669C8.18028 6.76429 8.26099 6.9257 8.26099 7.114C8.26099 7.46372 7.96508 7.73272 7.64227 7.73272C7.31946 7.73272 7.02355 7.43681 7.02355 7.114C6.99665 7.0064 7.02355 6.9257 7.05045 6.8719ZM22.8681 19.1387C22.7067 19.5153 22.4108 19.7843 22.0342 19.9188L15.4435 22.1516L10.9242 10.4497C11.4084 9.96549 11.785 9.40058 12.0271 8.72806C12.0271 8.70115 12.054 8.67425 12.054 8.64735C12.8072 8.35144 13.4798 7.81343 13.964 7.1409C14.0178 7.1409 14.0716 7.114 14.1254 7.0871C14.5558 6.9257 14.771 6.44148 14.6096 6.01107C14.4482 5.58066 13.964 5.36545 13.5336 5.52685C13.1031 5.68826 12.8879 6.17247 13.0493 6.60289C13.0493 6.62979 13.0762 6.65669 13.0762 6.68359C12.861 6.9526 12.592 7.19471 12.323 7.38301C12.3499 6.79119 12.2692 6.19937 12.0809 5.66136L12.9686 4.12801L18.5102 6.62979L22.922 17.9819C23.0565 18.3586 23.0296 18.7621 22.8681 19.1387Z" fill="#27263D"/>
<path d="M16.9769 11.0146C15.1207 11.0146 13.6412 12.5211 13.6412 14.3503C13.6412 16.1796 15.1476 17.686 16.9769 17.686C18.8061 17.686 20.3126 16.1796 20.3126 14.3503C20.3126 12.5211 18.833 11.0146 16.9769 11.0146ZM16.9769 16.7176C15.6856 16.7176 14.6096 15.6685 14.6096 14.3503C14.6096 13.0322 15.6587 11.9831 16.9769 11.9831C18.295 11.9831 19.3441 13.0322 19.3441 14.3503C19.3441 15.6685 18.2681 16.7176 16.9769 16.7176Z" fill="#27263D"/>
</svg>
