<svg width="23" height="23" viewBox="0 0 20 21" fill="none" xmlns="http://www.w3.org/2000/svg">
<path fill-rule="evenodd" clip-rule="evenodd" d="M6.39071 18.818C5.90649 19.1111 5.32766 19.2027 4.77735 19.0732C3.61037 18.7987 2.88565 17.6248 3.15864 16.4512L4.11437 12.3428L0.933424 9.57926C0.504452 9.20658 0.237524 8.67989 0.189734 8.11185C0.0886965 6.9109 0.974898 5.85498 2.16912 5.75337L6.36075 5.39674L8.00295 1.51107C8.22267 0.991172 8.63431 0.577214 9.1513 0.356252C10.2543 -0.115173 11.5285 0.401857 11.9973 1.51107L13.6395 5.39674L17.8311 5.75337C18.396 5.80143 18.9197 6.06986 19.2903 6.50125C20.0738 7.41328 19.9737 8.79135 19.0668 9.57926L15.8858 12.3428L16.8416 16.4512C16.9703 17.0046 16.8793 17.5867 16.5878 18.0737C15.9698 19.1063 14.6363 19.4396 13.6095 18.818L10.0001 16.6334L6.39071 18.818ZM13.6216 16.2783C14.0345 16.5283 14.5446 16.1582 14.4353 15.6881L13.4737 11.5544L16.6743 8.77376C17.0382 8.4576 16.8432 7.85937 16.3628 7.81851L12.1536 7.46038L10.5024 3.55345C10.3147 3.1093 9.68525 3.1093 9.49754 3.55345L7.84636 7.46038L3.6371 7.81851C3.15676 7.85937 2.96169 8.4576 3.32561 8.77376L6.52626 11.5544L5.56465 15.6881C5.4553 16.1582 5.96546 16.5283 6.37837 16.2783L9.99997 14.0863L13.6216 16.2783Z" fill="#FFBB22"/>
</svg>
