<svg width="24" height="24" viewBox="0 0 24 24" fill="none" xmlns="http://www.w3.org/2000/svg">
<path fill-rule="evenodd" clip-rule="evenodd" d="M8.39071 20.818C7.90649 21.1111 7.32766 21.2027 6.77735 21.0732C5.61037 20.7987 4.88565 19.6248 5.15864 18.4512L6.11437 14.3428L2.93342 11.5793C2.50445 11.2066 2.23752 10.6799 2.18973 10.1119C2.0887 8.9109 2.9749 7.85498 4.16912 7.75337L8.36075 7.39674L10.0029 3.51107C10.2227 2.99117 10.6343 2.57721 11.1513 2.35625C12.2543 1.88483 13.5285 2.40186 13.9973 3.51107L15.6395 7.39674L19.8311 7.75337C20.396 7.80143 20.9197 8.06986 21.2903 8.50125C22.0738 9.41328 21.9737 10.7914 21.0668 11.5793L17.8858 14.3428L18.8416 18.4512C18.9703 19.0046 18.8793 19.5867 18.5878 20.0737C17.9698 21.1063 16.6363 21.4396 15.6095 20.818L12.0001 18.6334L8.39071 20.818Z" fill="#FFBB22"/>
<mask id="mask0" mask-type="alpha" maskUnits="userSpaceOnUse" x="2" y="2" width="20" height="20">
<path fill-rule="evenodd" clip-rule="evenodd" d="M8.39071 20.818C7.90649 21.1111 7.32766 21.2027 6.77735 21.0732C5.61037 20.7987 4.88565 19.6248 5.15864 18.4512L6.11437 14.3428L2.93342 11.5793C2.50445 11.2066 2.23752 10.6799 2.18973 10.1119C2.0887 8.9109 2.9749 7.85498 4.16912 7.75337L8.36075 7.39674L10.0029 3.51107C10.2227 2.99117 10.6343 2.57721 11.1513 2.35625C12.2543 1.88483 13.5285 2.40186 13.9973 3.51107L15.6395 7.39674L19.8311 7.75337C20.396 7.80143 20.9197 8.06986 21.2903 8.50125C22.0738 9.41328 21.9737 10.7914 21.0668 11.5793L17.8858 14.3428L18.8416 18.4512C18.9703 19.0046 18.8793 19.5867 18.5878 20.0737C17.9698 21.1063 16.6363 21.4396 15.6095 20.818L12.0001 18.6334L8.39071 20.818Z" fill="white"/>
</mask>
<g mask="url(#mask0)">
</g>
</svg>
