<svg width="12" height="13" viewBox="0 0 12 13" fill="none" xmlns="http://www.w3.org/2000/svg">
<path d="M1.75667 0.67656C1.36614 0.286036 0.732978 0.286036 0.342454 0.67656C-0.0480705 1.06708 -0.0480705 1.70025 0.342454 2.09077L4.58522 6.33354L0.342605 10.5761C-0.0479195 10.9667 -0.0479194 11.5998 0.342605 11.9904C0.733129 12.3809 1.36629 12.3809 1.75682 11.9904L5.99943 7.74775L10.2419 11.9903C10.6325 12.3808 11.2656 12.3808 11.6562 11.9903C12.0467 11.5997 12.0467 10.9666 11.6562 10.5761L7.41364 6.33354L11.6563 2.09087C12.0468 1.70034 12.0468 1.06718 11.6563 0.676652C11.2658 0.286128 10.6326 0.286128 10.2421 0.676652L5.99943 4.91932L1.75667 0.67656Z" fill="#27263D"/>
</svg>
