<svg width="72" height="51" viewBox="0 0 72 51" fill="none" xmlns="http://www.w3.org/2000/svg">
<path d="M66.6722 18.547L48.0802 0L38.9019 9.1561L43.0878 13.3319L48.0802 8.35168L60.7523 20.9932V33.9618H66.6722V18.547Z" fill="#FFFFFF"/>
<path d="M23.9 0.00160106L42.5117 18.5464V33.9622H36.5919V20.9946L23.9025 8.35081L11.2291 20.9936V33.9622H5.30928V18.5474L23.9 0.00160106Z" fill="#FFFFFF"/>
<path d="M48.9496 33.0391C49.9856 33.0391 50.5221 33.482 50.5221 34.3494C50.5221 34.7923 50.3741 35.1245 50.1151 35.3644C49.8561 35.6043 49.4676 35.715 48.9496 35.715C48.4501 35.715 48.0617 35.6043 47.8027 35.3644C47.5252 35.1245 47.3957 34.7923 47.3957 34.3494C47.3957 33.9249 47.5252 33.6297 47.8027 33.3713C48.0617 33.1683 48.4501 33.0391 48.9496 33.0391Z" fill="#FFFFFF"/>
<path d="M50.2631 37.173V46.0128H47.6732V37.173H50.2631Z" fill="#FFFFFF"/>
<path fill-rule="evenodd" clip-rule="evenodd" d="M31.4491 46.2343C32.9661 46.2343 34.1315 45.8467 34.964 45.0532C35.778 44.2781 36.2035 43.1339 36.2035 41.6021C36.2035 40.0335 35.778 38.8708 34.9455 38.1142C34.1131 37.3575 32.9476 36.97 31.4491 36.97C29.9692 36.97 28.8037 37.376 27.9712 38.1511C27.1202 38.9446 26.6948 40.0888 26.6948 41.6021C26.6948 43.1892 27.1017 44.3519 27.9342 45.1085C28.7482 45.8652 29.9137 46.2343 31.4491 46.2343ZM31.4491 44.112C30.8201 44.112 30.3207 43.9274 29.9507 43.503C29.5622 43.097 29.3957 42.4695 29.3957 41.6021C29.3957 40.7347 29.5622 40.0888 29.9137 39.6828C30.2652 39.2768 30.7831 39.0738 31.4491 39.0738C32.1521 39.0738 32.6516 39.2768 33.0031 39.6828C33.3361 40.0888 33.5026 40.7163 33.5026 41.6021C33.5026 42.4695 33.3361 43.1154 32.9846 43.503C32.6331 43.9274 32.1151 44.112 31.4491 44.112Z" fill="#FFFFFF"/>
<path d="M14.0966 45.9759V40.2734C14.0966 39.1845 13.8561 38.3541 13.3936 37.8004C12.9311 37.2653 12.1912 36.9884 11.1737 36.9884C10.5077 36.9884 9.91572 37.1361 9.43473 37.376C8.93525 37.6343 8.50976 38.0957 8.13977 38.7416C7.95478 38.1511 7.62179 37.6897 7.1778 37.4129C6.73381 37.1361 6.17883 36.9884 5.51285 36.9884C4.88386 36.9884 4.32888 37.1176 3.86639 37.3206C3.3854 37.5421 2.99692 37.9296 2.66392 38.4833H2.62693V37.1361H0V46.0128H2.73792V41.7128C2.73792 40.9193 2.84892 40.3103 3.07091 39.8489C3.29291 39.3875 3.7369 39.1661 4.38438 39.1661C4.88386 39.1661 5.21685 39.3322 5.40185 39.6459C5.58684 39.9781 5.67934 40.4395 5.67934 41.0485V45.9944H8.38027V41.6944C8.38027 40.9008 8.49126 40.2918 8.75026 39.8305C9.00925 39.3691 9.45323 39.1476 10.0822 39.1476C10.5817 39.1476 10.9147 39.3137 11.0812 39.609C11.2477 39.9227 11.3402 40.3841 11.3402 41.03V45.9759H14.0966Z" fill="#FFFFFF"/>
<path fill-rule="evenodd" clip-rule="evenodd" d="M24.2343 45.0532C23.4018 45.8467 22.2364 46.2343 20.7194 46.2343C19.184 46.2343 18.0185 45.8652 17.2045 45.1085C16.372 44.3703 15.9651 43.2077 15.9651 41.6021C15.9651 40.0888 16.3905 38.9446 17.2415 38.1511C18.074 37.376 19.2395 36.97 20.7194 36.97C22.2179 36.97 23.3834 37.3575 24.2158 38.1142C25.0483 38.8708 25.4738 40.0335 25.4738 41.6021C25.4553 43.1339 25.0483 44.2781 24.2343 45.0532ZM19.221 43.503C19.591 43.9274 20.0904 44.112 20.7194 44.112C21.4039 44.112 21.9034 43.9274 22.2549 43.503C22.6064 43.097 22.7729 42.4695 22.7729 41.6021C22.7729 40.7163 22.6064 40.0704 22.2734 39.6828C21.9219 39.2768 21.4224 39.0738 20.7194 39.0738C20.0534 39.0738 19.5355 39.2768 19.184 39.6828C18.8325 40.1073 18.666 40.7347 18.666 41.6021C18.666 42.4695 18.8325 43.1154 19.221 43.503Z" fill="#FFFFFF"/>
<path d="M43.3628 46.0313L46.3967 37.1914H43.6773L41.8273 43.4845L40.0144 37.173H37.1285L40.1439 46.0128H43.3628V46.0313Z" fill="#FFFFFF"/>
<path d="M61.2703 40.4948C61.2703 39.2768 60.9928 38.391 60.4748 37.8373C59.9198 37.2837 59.1614 37.0069 58.1809 37.0069C57.6074 37.0069 57.0524 37.1361 56.5529 37.3391C56.0534 37.5421 55.6465 37.9112 55.3505 38.4094H55.3135V37.173H52.779V46.0497H55.3135V41.9343C55.3135 41.03 55.443 40.3287 55.7575 39.8858C56.0534 39.4245 56.5159 39.203 57.1819 39.203C57.4594 39.203 57.6999 39.2399 57.9034 39.3137C58.1069 39.3876 58.2549 39.4983 58.4029 39.6828C58.5139 39.8489 58.6064 40.1073 58.6619 40.3841C58.7174 40.6794 58.7544 41.0485 58.7544 41.4729V46.0682H61.2703V40.4948Z" fill="#FFFFFF"/>
<path fill-rule="evenodd" clip-rule="evenodd" d="M69.5581 38.4094V37.1545H72V45.7729C72 46.6403 71.8705 47.36 71.6115 47.9321C71.334 48.5042 70.9825 48.984 70.557 49.3162C70.1131 49.6853 69.5951 49.9068 69.0031 50.0544C68.3926 50.202 67.7821 50.2759 67.0976 50.2759C66.7832 50.2759 66.4501 50.2759 66.1357 50.239C65.8212 50.202 65.5067 50.1651 65.2292 50.1098C64.9332 50.0729 64.6557 50.0175 64.4152 49.9437C64.1562 49.8883 63.9527 49.8145 63.7862 49.7407V47.3969C64.0637 47.5446 64.4707 47.6737 64.9887 47.7845C65.4882 47.9321 66.0802 47.9875 66.7831 47.9875C67.2826 47.9875 67.7266 47.9506 68.0781 47.8398C68.4111 47.7291 68.7071 47.5815 68.9291 47.3785C69.1326 47.1755 69.2806 46.9356 69.3731 46.6218C69.4656 46.3081 69.5026 45.9574 69.5026 45.5514V44.8133H69.4656C69.2251 45.2377 68.8736 45.6068 68.3926 45.9021C67.9116 46.1974 67.3566 46.3081 66.7831 46.3081C65.5622 46.3081 64.6187 45.939 63.9342 45.2193C63.2682 44.4995 62.9353 43.3738 62.9353 41.8236C62.9353 40.2549 63.2312 39.0554 63.8602 38.2249C64.4707 37.3944 65.4512 36.97 66.7831 36.97C67.4491 36.97 68.0041 37.1176 68.4851 37.376C68.9661 37.6713 69.2991 38.0034 69.5211 38.4094H69.5581ZM69.0031 39.8305C68.6701 39.406 68.1521 39.1661 67.4861 39.1661C66.8386 39.1661 66.3577 39.3876 66.0617 39.7751C65.7472 40.1627 65.5992 40.8086 65.5992 41.6575C65.5992 42.4879 65.7657 43.1154 66.0987 43.5214C66.4316 43.9274 66.9126 44.1304 67.5231 44.1304C68.1706 44.1304 68.6516 43.909 68.9846 43.4661C69.3176 43.0416 69.5026 42.4141 69.5026 41.6575C69.4841 40.8824 69.3176 40.2734 69.0031 39.8305Z" fill="#FFFFFF"/>
</svg>
