<svg width="16" height="16" viewBox="0 0 16 16" fill="none" xmlns="http://www.w3.org/2000/svg">
<path fill-rule="evenodd" clip-rule="evenodd" d="M1.89198 7.20273H14.9409C15.5258 7.20273 16 7.67692 16 8.26182C16 8.84675 15.5258 9.32091 14.9409 9.32091H1.05906C0.474157 9.32091 0 8.84672 0 8.26182C0 7.71157 0.419675 7.25943 0.956392 7.20778V4.05481C0.956392 2.92177 1.8782 2 3.01123 2H4.03695C4.47774 2 4.89822 2.18918 5.19062 2.51903L5.39396 2.74841C5.68253 2.29845 6.18672 2 6.76095 2C7.6574 2 8.38414 2.72674 8.38414 3.62319V4.20968H8.696C8.95438 4.20968 9.16383 4.41913 9.1638 4.67747C9.1638 4.93585 8.95438 5.14527 8.696 5.14527H4.8259C4.69669 5.14527 4.57975 5.09294 4.49511 5.00827C4.41047 4.92359 4.3581 4.80665 4.3581 4.67747C4.3581 4.41909 4.56752 4.20968 4.8259 4.20968H5.13773V3.86859C5.13622 3.86699 5.13466 3.86545 5.1331 3.86392C5.13101 3.86187 5.12893 3.85982 5.12697 3.85761L4.49049 3.13961C4.37557 3.00994 4.21025 2.93556 4.03698 2.93556H3.01123C2.39408 2.93556 1.89198 3.43763 1.89198 4.05477V7.20273ZM1.05029 10.2568L1.05924 10.2571H14.9411L14.9501 10.2568V10.6111C14.9501 12.0299 13.8 13.18 12.3812 13.18H11.7359C11.7382 13.1988 11.7398 13.2178 11.7398 13.2372V14.0335C11.7398 14.2919 11.5303 14.5013 11.272 14.5013C11.0136 14.5013 10.8042 14.2919 10.8042 14.0335V13.2372C10.8042 13.2178 10.8057 13.1988 10.808 13.18H5.19237C5.19468 13.1988 5.19621 13.2178 5.19621 13.2372V14.0335C5.19621 14.2919 4.98676 14.5013 4.72841 14.5013C4.47006 14.5013 4.26062 14.2919 4.26062 14.0335V13.2372C4.26062 13.2178 4.26214 13.1988 4.26445 13.18H3.61917C2.20041 13.18 1.05029 12.0299 1.05029 10.6111V10.2568Z" fill="#111133" fill-opacity="0.25"/>
</svg>
