<svg width="385" height="376" viewBox="0 0 385 376" fill="none" xmlns="http://www.w3.org/2000/svg">
<path d="M295.583 1.9814C274.501 -2.55762 252.613 3.89785 236.979 18.7253C230.12 25.2817 222.555 33.4519 215.595 43.1352C198.447 67.1416 231.33 90.8454 226.892 99.0156C222.555 107.186 212.367 113.54 216.805 130.486C221.243 147.432 250.495 169.421 259.976 170.43C356.607 180.315 398.568 127.057 366.19 98.4104C333.912 69.6632 347.025 28.0051 320.799 11.8664C312.932 6.82301 304.055 3.79701 295.583 1.9814Z" fill="#233862"/>
<path d="M246.459 150.457C246.459 150.457 155.477 190.098 138.934 189.392C122.392 188.686 20.6172 158.426 20.6172 158.426L23.2397 175.977C23.2397 175.977 101.815 221.165 129.251 223.687C156.283 226.208 248.678 199.378 257.655 193.729C266.531 188.081 272.382 156.207 246.459 150.457Z" fill="#ED985F"/>
<path d="M235.364 193.831C243.333 199.379 253.419 203.918 265.927 206.843C313.032 217.736 331.188 177.894 337.946 150.559C331.491 146.928 325.439 146.02 322.009 145.616C318.58 145.213 315.049 144.91 312.023 144.809C306.778 140.775 298.81 124.132 297.095 98.4105L294.876 99.0158L257.757 109.102C257.757 109.102 259.471 120.904 260.278 132.1C260.884 140.876 260.984 149.147 259.371 151.265C256.445 151.87 254.731 152.274 254.731 152.274C254.226 153.081 243.434 170.833 235.364 193.831Z" fill="#FFB27D"/>
<path d="M257.757 109.102C257.757 109.102 259.472 120.904 260.279 132.1C281.36 129.982 291.144 109.909 294.876 98.9146L257.757 109.102Z" fill="#ED985F"/>
<path d="M251.503 120.197C251.503 120.197 301.432 117.474 299.314 86.306C297.095 55.2389 302.138 33.9559 270.063 34.3594C238.088 34.7629 232.742 47.0687 230.926 57.6597C229.111 68.2508 238.39 120.097 251.503 120.197Z" fill="#FFB27D"/>
<path d="M231.127 40.3107C238.188 30.4258 244.139 32.0397 247.568 34.6622C273.794 17.7165 292.959 38.596 292.959 38.596C297.901 60.6859 314.948 72.2856 314.948 72.2856C314.948 72.2856 306.071 79.3463 284.889 74.7064C257.756 68.6544 248.476 45.1524 247.165 41.5212C244.341 44.4463 240.609 46.3628 237.784 52.7174C234.456 60.2824 232.337 64.7206 232.237 77.2281C232.337 77.3289 220.536 55.1382 231.127 40.3107Z" fill="#233862"/>
<path d="M352.27 295.404C356.809 272.306 371.536 180.214 356.809 150.458C351.564 139.766 330.786 138.858 307.99 139.766C300.929 144.305 273.897 161.654 262.902 159.435C262.801 159.435 262.599 159.335 262.297 159.335C257.052 158.023 255.135 154.392 259.473 151.164C259.473 151.164 248.175 150.055 234.256 152.677C226.388 154.19 205.004 165.185 205.004 165.185C205.004 165.185 215.696 184.551 231.532 191.309C228.809 215.417 232.844 226.008 257.859 281.586C278.94 328.59 255.034 370.954 255.034 370.954C255.034 370.954 379.303 470.812 380.009 419.975C380.412 381.747 346.42 324.858 352.27 295.404Z" fill="#B5453C"/>
<path d="M248.78 479.688C242.022 478.881 235.969 475.25 232.137 469.601C231.531 468.694 230.926 467.786 230.22 466.676C216.099 445.292 210.551 379.729 178.778 309.828C171.011 292.781 143.172 289.755 135.607 270.49C135.607 270.49 116.946 208.154 171.314 206.338C225.681 204.522 316.966 379.729 318.479 398.087C319.891 415.94 354.388 491.59 248.78 479.688Z" fill="#ED833B"/>
<path d="M344.099 174.664C344.099 174.664 354.186 266.353 288.824 285.517C223.462 304.682 204.903 201.192 257.656 193.728C310.41 186.264 344.099 174.664 344.099 174.664Z" fill="#9E332E"/>
<path d="M133.793 224.393C129.154 259.393 110.897 369.641 78.8209 423.504C68.4316 440.853 104.946 450.537 105.147 450.537C109.989 449.225 118.159 441.459 121.891 438.13C148.016 414.628 200.87 348.056 200.87 294.697C200.87 268.673 201.374 219.047 182.411 206.337C170.812 198.571 135.71 210.473 133.793 224.393Z" fill="#ED833B"/>
<path d="M294.879 478.276C294.879 478.276 292.055 474.241 287.011 466.676C281.06 457.699 274.504 439.947 266.434 417.151C258.062 393.245 248.076 363.893 235.67 333.33C231.837 323.849 227.701 314.367 223.364 304.785C215.597 287.738 194.314 290.159 186.749 270.893C186.749 270.893 157.195 204.22 211.563 202.404C265.93 200.589 369.319 380.738 375.27 398.188C381.826 417.252 413.499 496.533 294.879 478.276Z" fill="#FFA561"/>
<path d="M266.534 417.151C258.162 393.246 248.176 363.893 235.769 333.331C238.997 310.131 246.058 289.857 257.859 281.687C257.758 281.687 286.404 370.349 266.534 417.151Z" fill="#F4904D"/>
<path d="M178.979 221.871C174.339 256.872 167.783 369.642 135.606 423.505C125.217 440.854 161.731 450.537 161.932 450.537C166.774 449.226 174.944 441.459 178.676 438.131C204.801 414.628 257.655 348.056 257.655 294.697C257.655 268.674 227.093 221.064 208.23 208.456C196.631 200.689 180.895 208.053 178.979 221.871Z" fill="#FFA561"/>
<path d="M11.4382 113.34L90.7198 104.968C93.0398 104.766 95.2589 106.078 96.0658 108.196L124.409 182.737C125.62 185.964 123.3 189.495 119.87 189.696L41.194 192.823C39.0758 192.924 37.0585 191.613 36.2516 189.696L7.30269 120.401C5.89055 117.274 8.00874 113.744 11.4382 113.34Z" fill="#9E332E"/>
<path d="M4.479 114.153L83.7606 105.781C86.0805 105.579 88.2996 106.89 89.1065 109.008L117.551 183.549C118.761 186.777 116.442 190.307 113.012 190.509L34.3356 193.636C32.2174 193.737 30.2001 192.426 29.3931 190.509L0.444316 121.213C-0.967824 117.986 1.15039 114.455 4.479 114.153Z" fill="#B5453C"/>
<path d="M48.459 148.948C47.4503 146.325 48.8624 144.106 51.485 144.106C54.1077 144.106 57.1338 146.224 58.0416 148.948C59.0503 151.571 57.6381 153.79 55.0155 153.79C52.3929 153.79 49.4677 151.571 48.459 148.948Z" fill="#9E332E"/>
<path d="M6.90123 121.108C6.39688 119.797 7.10297 118.788 8.41428 118.788C9.72558 118.788 11.1378 119.898 11.6421 121.108C12.1465 122.419 11.4404 123.428 10.1291 123.428C8.81777 123.529 7.40558 122.419 6.90123 121.108Z" fill="#9E332E"/>
<path d="M338.048 150.458C338.048 150.458 228.103 190.905 211.661 190.098C200.97 189.594 112.307 158.426 112.307 158.426L104.339 173.455C104.339 173.455 190.681 228.932 214.385 228.73C261.288 228.226 340.368 199.378 349.244 193.729C358.121 188.081 363.971 156.207 338.048 150.458Z" fill="#FFB27D"/>
<path d="M112.206 158.427C112.206 158.427 104.238 146.121 96.2694 145.819C88.3009 145.415 74.6838 151.266 69.943 152.174C65.3031 153.081 51.8878 157.419 55.9225 163.874C59.8563 170.33 78.315 171.843 86.1827 170.33C94.1512 168.917 104.238 173.456 104.238 173.456L112.206 158.427Z" fill="#FFB27D"/>
<path d="M98.4899 146.221C98.4899 146.221 85.8812 140.472 82.2499 139.362C78.6186 138.252 79.3247 139.362 80.4343 142.792C81.5438 146.221 87.9995 149.449 87.9995 150.559C87.9995 151.567 98.4899 146.221 98.4899 146.221Z" fill="#FFB27D"/>
<path d="M12.6495 151.971C12.6495 151.971 20.6182 139.362 23.2408 138.858C31.2096 137.244 31.2096 147.734 29.4948 154.493C27.6791 161.755 21.6269 168.514 19.9122 167.908C18.1974 167.303 10.8339 158.628 12.6495 151.971Z" fill="#FFB27D"/>
<path d="M12.3445 154.493C12.3445 154.493 9.82275 168.615 23.2384 175.979L19.3045 166.295L12.3445 154.493Z" fill="#FFB27D"/>
<path d="M242.125 102.343C242.125 102.343 246.866 100.427 260.181 101.536C260.181 101.536 259.475 106.681 249.69 107.286C244.042 107.488 242.125 102.343 242.125 102.343Z" fill="white"/>
<path d="M281.36 170.429C281.36 170.429 291.144 201.496 324.934 208.658C324.934 208.658 380.714 191.51 352.875 153.483C352.975 153.483 325.54 133.108 281.36 170.429Z" fill="#B5453C"/>
</svg>
